<svg width="113" height="140" viewBox="0 0 113 140" fill="none" xmlns="http://www.w3.org/2000/svg">
<path d="M2 56.5H71.5858C72.4767 56.5 72.9229 55.4229 72.2929 54.7929L38.2071 20.7071C37.8166 20.3166 37.8166 19.6834 38.2071 19.2929L55.7929 1.70711C56.1834 1.31658 56.8166 1.31658 57.2071 1.70711L111.707 56.2071C111.895 56.3946 112 56.649 112 56.9142V84L57.2071 138.793C56.8166 139.183 56.1834 139.183 55.7929 138.793L38.2071 121.207C37.8166 120.817 37.8166 120.183 38.2071 119.793L74 84H2C1.44772 84 1 83.5523 1 83V57.5C1 56.9477 1.44772 56.5 2 56.5Z" fill="white"/>
<path d="M112 84V56.9142C112 56.649 111.895 56.3946 111.707 56.2071L57.2071 1.70711C56.8166 1.31658 56.1834 1.31658 55.7929 1.70711L38.2071 19.2929C37.8166 19.6834 37.8166 20.3166 38.2071 20.7071L72.2929 54.7929C72.9229 55.4229 72.4767 56.5 71.5858 56.5H2C1.44772 56.5 1 56.9477 1 57.5V83C1 83.5523 1.44772 84 2 84H74M112 84H74M112 84L57.2071 138.793C56.8166 139.183 56.1834 139.183 55.7929 138.793L38.2071 121.207C37.8166 120.817 37.8166 120.183 38.2071 119.793L74 84" stroke="white"/>
</svg>
