<svg width="392" height="50" viewBox="0 0 392 50" fill="none" xmlns="http://www.w3.org/2000/svg">
<path d="M159.671 26.39L159.071 26.7884L146.161 35.3591L145.597 35.7337L145.405 35.0842C145.183 34.3338 145.079 33.557 145.096 32.7781C145.099 27.8317 149.071 24.3016 153.879 24.3014L159.671 26.39ZM159.671 26.39L159.088 25.9671M159.671 26.39L159.088 25.9671M159.088 25.9671C157.596 24.8844 155.763 24.3 153.88 24.3014L159.088 25.9671ZM294.282 26.3901L293.681 26.7884L280.764 35.3592L280.2 35.7337L280.008 35.084C279.787 34.3334 279.684 33.5564 279.703 32.7774C279.706 27.8313 283.678 24.3016 288.488 24.3014L294.282 26.3901ZM294.282 26.3901L293.698 25.9671M294.282 26.3901L293.698 25.9671M293.698 25.9671C292.205 24.884 290.371 24.2997 288.488 24.3014L293.698 25.9671ZM122.945 24.606C122.076 24.3907 121.178 24.288 120.278 24.3014C118.233 24.3022 116.31 25.0152 114.897 26.4553C113.482 27.8981 112.622 30.0278 112.622 32.784V48.7737H103.653V16.7291H112.622V18.5195V19.7198L113.474 18.8745C115.533 16.8317 118.342 16.0106 120.984 16.0106V16.0107L120.996 16.0104C121.646 15.9948 122.296 16.02 122.942 16.086L122.945 24.606ZM169.597 43.2299C166.592 47.0272 160.717 49.4922 154.719 49.4922C144.273 49.4922 135.983 41.8818 135.983 32.784C135.983 23.5361 143.943 16.0106 153.876 16.0106C162.272 16.0106 168.728 21.1582 170.966 26.9677L151.483 39.958L150.656 40.5091L151.591 40.8446C152.588 41.2023 153.643 41.2666 154.709 41.2666C157.644 41.2666 160.677 40.3696 162.476 38.123L169.597 43.2299ZM195.183 18.5195V19.7822L196.048 18.8619C196.944 17.9078 198.374 17.1889 200.018 16.7101C201.654 16.234 203.449 16.0106 205.021 16.0106C214.398 16.0106 220.949 23.4707 220.949 32.784L220.946 48.7737H212.048V32.784C212.048 30.0277 211.187 27.8957 209.742 26.4517C208.299 25.0099 206.321 24.3014 204.175 24.3014C201.869 24.3014 199.625 25.0009 197.948 26.4242C196.261 27.8565 195.183 29.9939 195.183 32.784V48.7737H186.215V16.7291H195.183V18.5195ZM248.93 16.2291V16.7291H249.43H257.355V24.3014H249.427H248.927V24.8014V35.3352C248.927 37.3948 249.951 38.9052 251.565 39.876C253.04 40.7634 255.002 41.2015 257.142 41.2598V49.4878C252.145 49.3992 247.898 47.9819 244.883 45.6161C241.777 43.1785 239.958 39.7218 239.958 35.5975V24.8014V24.3014H239.458H234.63V16.7291H239.458H239.958V16.2291V12.1759L248.93 6.11212V16.2291ZM304.207 43.2373C301.203 47.0348 295.327 49.5 289.331 49.5C278.884 49.5 270.593 41.8895 270.593 32.7917C270.593 23.5439 278.554 16.0183 288.488 16.0183C296.879 16.0183 303.335 21.1657 305.573 26.9679L286.098 39.958L285.271 40.5091L286.206 40.8446C287.203 41.2023 288.257 41.2666 289.324 41.2666C292.258 41.2666 295.291 40.3697 297.091 38.1234L304.207 43.2373ZM340.115 24.6061C339.245 24.3907 338.348 24.288 337.447 24.3014C335.402 24.3023 333.479 25.0152 332.066 26.4553C330.652 27.8981 329.792 30.0278 329.792 32.784V48.7737H320.821V16.7291H329.792V18.5195V19.7198L330.644 18.8745C332.703 16.8317 335.512 16.0106 338.154 16.0107L338.166 16.0104C338.816 15.9948 339.466 16.02 340.112 16.086L340.115 24.6061ZM1.36285 27.2934L45.312 17.6522L39.0391 49.1619L1.36285 27.2934ZM68.9415 11.1484L85.1133 49.0989L49.3575 47.2492L68.9415 11.1484ZM364.512 5.10397C364.512 7.66056 362.189 9.90503 359.045 9.90503C356.19 9.90503 353.787 7.66928 353.787 5.10397C353.787 3.96424 354.371 2.8156 355.342 1.94068C356.311 1.06823 357.634 0.5 359.045 0.5C362.201 0.5 364.512 2.75732 364.512 5.10397ZM354.63 48.7737V16.7275H363.6V48.7737H354.63ZM390.641 5.10397C390.641 7.66056 388.318 9.90503 385.174 9.90503C382.319 9.90503 379.916 7.66928 379.916 5.10397C379.916 3.96424 380.5 2.8156 381.471 1.94068C382.44 1.06823 383.763 0.5 385.174 0.5C388.33 0.5 390.641 2.75731 390.641 5.10397ZM380.759 48.7737V16.7275H389.729V48.7737H380.759Z" fill="transparent" stroke="transparent"/>
</svg>
